<mxfile host="app.diagrams.net" modified="2024-02-25T17:24:13.557Z" agent="Mozilla/5.0 (Windows NT 10.0; Win64; x64) AppleWebKit/537.36 (KHTML, like Gecko) Chrome/122.0.0.0 Safari/537.36 Edg/122.0.0.0" etag="2Is-gupxNm_Yni7-qeJd" version="23.1.6" type="device">
  <diagram name="Сторінка-1" id="8TBUVyi5BWyhotSZRznd">
    <mxGraphModel dx="2053" dy="1911" grid="1" gridSize="10" guides="1" tooltips="1" connect="1" arrows="1" fold="1" page="1" pageScale="1" pageWidth="827" pageHeight="1169" math="0" shadow="0">
      <root>
        <mxCell id="0" />
        <mxCell id="1" parent="0" />
        <mxCell id="HNJoWr5GMsP5crq_2kIg-16" style="edgeStyle=orthogonalEdgeStyle;rounded=0;orthogonalLoop=1;jettySize=auto;html=1;" parent="1" source="HNJoWr5GMsP5crq_2kIg-1" target="HNJoWr5GMsP5crq_2kIg-15" edge="1">
          <mxGeometry relative="1" as="geometry" />
        </mxCell>
        <mxCell id="HNJoWr5GMsP5crq_2kIg-1" value="startDoodleGame(const std::string&amp;amp; mylevel)" style="rounded=1;whiteSpace=wrap;html=1;" parent="1" vertex="1">
          <mxGeometry x="90" y="-970" width="130" height="60" as="geometry" />
        </mxCell>
        <mxCell id="HNJoWr5GMsP5crq_2kIg-2" value="Menu" style="shape=umlFrame;whiteSpace=wrap;html=1;pointerEvents=0;" parent="1" vertex="1">
          <mxGeometry x="-740" y="-1070" width="1290" height="640" as="geometry" />
        </mxCell>
        <mxCell id="HNJoWr5GMsP5crq_2kIg-14" style="edgeStyle=orthogonalEdgeStyle;rounded=0;orthogonalLoop=1;jettySize=auto;html=1;" parent="1" source="HNJoWr5GMsP5crq_2kIg-8" target="HNJoWr5GMsP5crq_2kIg-1" edge="1">
          <mxGeometry relative="1" as="geometry" />
        </mxCell>
        <mxCell id="HNJoWr5GMsP5crq_2kIg-8" value="starteasyGame()" style="rounded=1;whiteSpace=wrap;html=1;" parent="1" vertex="1">
          <mxGeometry x="260" y="-1045" width="120" height="60" as="geometry" />
        </mxCell>
        <mxCell id="HNJoWr5GMsP5crq_2kIg-12" style="edgeStyle=orthogonalEdgeStyle;rounded=0;orthogonalLoop=1;jettySize=auto;html=1;entryX=1;entryY=0.75;entryDx=0;entryDy=0;" parent="1" source="HNJoWr5GMsP5crq_2kIg-9" target="HNJoWr5GMsP5crq_2kIg-1" edge="1">
          <mxGeometry relative="1" as="geometry" />
        </mxCell>
        <mxCell id="HNJoWr5GMsP5crq_2kIg-9" value="startmediumGame()" style="rounded=1;whiteSpace=wrap;html=1;" parent="1" vertex="1">
          <mxGeometry x="260" y="-955" width="120" height="60" as="geometry" />
        </mxCell>
        <mxCell id="HNJoWr5GMsP5crq_2kIg-10" value="starthardGame()" style="rounded=1;whiteSpace=wrap;html=1;" parent="1" vertex="1">
          <mxGeometry x="234" y="-855" width="120" height="60" as="geometry" />
        </mxCell>
        <mxCell id="HNJoWr5GMsP5crq_2kIg-11" style="edgeStyle=orthogonalEdgeStyle;rounded=0;orthogonalLoop=1;jettySize=auto;html=1;entryX=0.689;entryY=0.97;entryDx=0;entryDy=0;entryPerimeter=0;" parent="1" source="HNJoWr5GMsP5crq_2kIg-10" target="HNJoWr5GMsP5crq_2kIg-1" edge="1">
          <mxGeometry relative="1" as="geometry" />
        </mxCell>
        <mxCell id="HNJoWr5GMsP5crq_2kIg-58" style="edgeStyle=orthogonalEdgeStyle;rounded=0;orthogonalLoop=1;jettySize=auto;html=1;" parent="1" source="HNJoWr5GMsP5crq_2kIg-15" target="HNJoWr5GMsP5crq_2kIg-50" edge="1">
          <mxGeometry relative="1" as="geometry" />
        </mxCell>
        <mxCell id="HNJoWr5GMsP5crq_2kIg-15" value="&amp;nbsp;RunGame (.....)" style="rounded=1;whiteSpace=wrap;html=1;" parent="1" vertex="1">
          <mxGeometry x="-210" y="-985" width="240" height="90" as="geometry" />
        </mxCell>
        <mxCell id="HNJoWr5GMsP5crq_2kIg-27" value="" style="line;strokeWidth=4;html=1;perimeter=backbonePerimeter;points=[];outlineConnect=0;" parent="1" vertex="1">
          <mxGeometry x="-180" y="-800" width="160" height="10" as="geometry" />
        </mxCell>
        <mxCell id="HNJoWr5GMsP5crq_2kIg-30" value="" style="endArrow=classic;html=1;rounded=0;" parent="1" source="HNJoWr5GMsP5crq_2kIg-27" target="HNJoWr5GMsP5crq_2kIg-32" edge="1">
          <mxGeometry width="50" height="50" relative="1" as="geometry">
            <mxPoint x="170" y="-720" as="sourcePoint" />
            <mxPoint x="220" y="-770" as="targetPoint" />
          </mxGeometry>
        </mxCell>
        <mxCell id="HNJoWr5GMsP5crq_2kIg-31" value="drawPlatforms()" style="rounded=1;whiteSpace=wrap;html=1;" parent="1" vertex="1">
          <mxGeometry x="60" y="-720" width="130" height="50" as="geometry" />
        </mxCell>
        <mxCell id="HNJoWr5GMsP5crq_2kIg-32" value="draw()" style="rounded=1;whiteSpace=wrap;html=1;" parent="1" vertex="1">
          <mxGeometry x="-90" y="-720" width="130" height="50" as="geometry" />
        </mxCell>
        <mxCell id="HNJoWr5GMsP5crq_2kIg-33" value="setPosition()" style="rounded=1;whiteSpace=wrap;html=1;" parent="1" vertex="1">
          <mxGeometry x="-240" y="-720" width="130" height="50" as="geometry" />
        </mxCell>
        <mxCell id="HNJoWr5GMsP5crq_2kIg-34" value="" style="endArrow=classic;html=1;rounded=0;" parent="1" source="HNJoWr5GMsP5crq_2kIg-27" target="HNJoWr5GMsP5crq_2kIg-31" edge="1">
          <mxGeometry width="50" height="50" relative="1" as="geometry">
            <mxPoint x="-54" y="-784" as="sourcePoint" />
            <mxPoint x="-54" y="-680" as="targetPoint" />
          </mxGeometry>
        </mxCell>
        <mxCell id="HNJoWr5GMsP5crq_2kIg-35" value="" style="endArrow=classic;html=1;rounded=0;" parent="1" source="HNJoWr5GMsP5crq_2kIg-27" target="HNJoWr5GMsP5crq_2kIg-33" edge="1">
          <mxGeometry width="50" height="50" relative="1" as="geometry">
            <mxPoint x="-44" y="-774" as="sourcePoint" />
            <mxPoint x="-44" y="-670" as="targetPoint" />
          </mxGeometry>
        </mxCell>
        <mxCell id="HNJoWr5GMsP5crq_2kIg-36" value="" style="endArrow=classic;html=1;rounded=0;" parent="1" source="HNJoWr5GMsP5crq_2kIg-27" target="HNJoWr5GMsP5crq_2kIg-37" edge="1">
          <mxGeometry width="50" height="50" relative="1" as="geometry">
            <mxPoint x="-104" y="-720" as="sourcePoint" />
            <mxPoint x="160" y="-696" as="targetPoint" />
          </mxGeometry>
        </mxCell>
        <mxCell id="HNJoWr5GMsP5crq_2kIg-37" value="createBomb()" style="rounded=1;whiteSpace=wrap;html=1;" parent="1" vertex="1">
          <mxGeometry x="-165" y="-635" width="130" height="50" as="geometry" />
        </mxCell>
        <mxCell id="HNJoWr5GMsP5crq_2kIg-38" value="" style="endArrow=classic;html=1;rounded=0;" parent="1" source="HNJoWr5GMsP5crq_2kIg-27" target="HNJoWr5GMsP5crq_2kIg-39" edge="1">
          <mxGeometry width="50" height="50" relative="1" as="geometry">
            <mxPoint x="36" y="-720" as="sourcePoint" />
            <mxPoint x="300" y="-696" as="targetPoint" />
          </mxGeometry>
        </mxCell>
        <mxCell id="HNJoWr5GMsP5crq_2kIg-39" value="Teleport()" style="rounded=1;whiteSpace=wrap;html=1;" parent="1" vertex="1">
          <mxGeometry x="20" y="-635" width="130" height="50" as="geometry" />
        </mxCell>
        <mxCell id="HNJoWr5GMsP5crq_2kIg-40" value="" style="endArrow=classic;html=1;rounded=0;" parent="1" source="HNJoWr5GMsP5crq_2kIg-27" target="HNJoWr5GMsP5crq_2kIg-41" edge="1">
          <mxGeometry width="50" height="50" relative="1" as="geometry">
            <mxPoint x="-224" y="-720" as="sourcePoint" />
            <mxPoint x="40" y="-696" as="targetPoint" />
          </mxGeometry>
        </mxCell>
        <mxCell id="HNJoWr5GMsP5crq_2kIg-41" value="TurnDown()" style="rounded=1;whiteSpace=wrap;html=1;" parent="1" vertex="1">
          <mxGeometry x="-310" y="-780" width="130" height="50" as="geometry" />
        </mxCell>
        <mxCell id="HNJoWr5GMsP5crq_2kIg-42" value="gameover" style="rhombus;whiteSpace=wrap;html=1;fontColor=#000000;fillColor=#ffffc0;strokeColor=#ff0000;" parent="1" vertex="1">
          <mxGeometry x="-305" y="-855" width="80" height="40" as="geometry" />
        </mxCell>
        <mxCell id="HNJoWr5GMsP5crq_2kIg-43" value="no" style="edgeStyle=orthogonalEdgeStyle;html=1;align=left;verticalAlign=bottom;endArrow=open;endSize=8;strokeColor=#ff0000;rounded=0;" parent="1" source="HNJoWr5GMsP5crq_2kIg-42" target="HNJoWr5GMsP5crq_2kIg-27" edge="1">
          <mxGeometry x="-1" relative="1" as="geometry">
            <mxPoint x="-130" y="-870" as="targetPoint" />
          </mxGeometry>
        </mxCell>
        <mxCell id="HNJoWr5GMsP5crq_2kIg-50" value="isKeyPressed(sf::Keyboard::F2)" style="rhombus;whiteSpace=wrap;html=1;fontColor=#000000;fillColor=#ffffc0;strokeColor=#ff0000;" parent="1" vertex="1">
          <mxGeometry x="-630" y="-815" width="210" height="40" as="geometry" />
        </mxCell>
        <mxCell id="HNJoWr5GMsP5crq_2kIg-52" value="yes" style="edgeStyle=orthogonalEdgeStyle;html=1;align=left;verticalAlign=top;endArrow=open;endSize=8;strokeColor=#ff0000;rounded=0;entryX=0.434;entryY=0.047;entryDx=0;entryDy=0;entryPerimeter=0;" parent="1" source="HNJoWr5GMsP5crq_2kIg-50" target="HNJoWr5GMsP5crq_2kIg-54" edge="1">
          <mxGeometry x="-1" relative="1" as="geometry">
            <mxPoint x="-370" y="-570" as="targetPoint" />
          </mxGeometry>
        </mxCell>
        <mxCell id="HNJoWr5GMsP5crq_2kIg-54" value="ResetGame()" style="rounded=1;whiteSpace=wrap;html=1;" parent="1" vertex="1">
          <mxGeometry x="-590" y="-635" width="130" height="50" as="geometry" />
        </mxCell>
        <mxCell id="HNJoWr5GMsP5crq_2kIg-60" value="isKeyPressed(Keyboard::Escape)" style="rhombus;whiteSpace=wrap;html=1;fontColor=#000000;fillColor=#ffffc0;strokeColor=#ff0000;" parent="1" vertex="1">
          <mxGeometry x="-740" y="-1040" width="240" height="40" as="geometry" />
        </mxCell>
        <mxCell id="HNJoWr5GMsP5crq_2kIg-62" value="yes" style="edgeStyle=orthogonalEdgeStyle;html=1;align=left;verticalAlign=top;endArrow=open;endSize=8;strokeColor=#ff0000;rounded=0;entryX=0.5;entryY=0;entryDx=0;entryDy=0;" parent="1" source="HNJoWr5GMsP5crq_2kIg-60" target="Hp_AaXpPT5wj6KRCr_61-3" edge="1">
          <mxGeometry x="-1" relative="1" as="geometry">
            <mxPoint x="-600" y="-920" as="targetPoint" />
          </mxGeometry>
        </mxCell>
        <mxCell id="HNJoWr5GMsP5crq_2kIg-68" style="edgeStyle=orthogonalEdgeStyle;rounded=0;orthogonalLoop=1;jettySize=auto;html=1;entryX=0.926;entryY=0.645;entryDx=0;entryDy=0;entryPerimeter=0;" parent="1" source="HNJoWr5GMsP5crq_2kIg-15" target="HNJoWr5GMsP5crq_2kIg-60" edge="1">
          <mxGeometry relative="1" as="geometry">
            <Array as="points">
              <mxPoint x="-518" y="-940" />
            </Array>
          </mxGeometry>
        </mxCell>
        <mxCell id="HNJoWr5GMsP5crq_2kIg-71" value="" style="rounded=0;whiteSpace=wrap;html=1;" parent="1" vertex="1">
          <mxGeometry x="-470" y="-617.5" width="20" height="15" as="geometry" />
        </mxCell>
        <mxCell id="HNJoWr5GMsP5crq_2kIg-72" value="gameover = false" style="text;html=1;align=center;verticalAlign=middle;resizable=0;points=[];autosize=1;strokeColor=none;fillColor=none;" parent="1" vertex="1">
          <mxGeometry x="-474" y="-642" width="120" height="30" as="geometry" />
        </mxCell>
        <mxCell id="HNJoWr5GMsP5crq_2kIg-73" style="edgeStyle=orthogonalEdgeStyle;rounded=0;orthogonalLoop=1;jettySize=auto;html=1;entryX=0;entryY=0.611;entryDx=0;entryDy=0;entryPerimeter=0;" parent="1" source="HNJoWr5GMsP5crq_2kIg-71" target="HNJoWr5GMsP5crq_2kIg-15" edge="1">
          <mxGeometry relative="1" as="geometry" />
        </mxCell>
        <mxCell id="HNJoWr5GMsP5crq_2kIg-78" value="" style="endArrow=classic;html=1;rounded=0;entryX=0.5;entryY=0;entryDx=0;entryDy=0;" parent="1" target="HNJoWr5GMsP5crq_2kIg-42" edge="1">
          <mxGeometry width="50" height="50" relative="1" as="geometry">
            <mxPoint x="-270" y="-940" as="sourcePoint" />
            <mxPoint x="-34" y="-710" as="targetPoint" />
          </mxGeometry>
        </mxCell>
        <mxCell id="Hp_AaXpPT5wj6KRCr_61-10" style="edgeStyle=orthogonalEdgeStyle;rounded=0;orthogonalLoop=1;jettySize=auto;html=1;entryX=0;entryY=0;entryDx=0;entryDy=0;" parent="1" source="Hp_AaXpPT5wj6KRCr_61-3" target="Hp_AaXpPT5wj6KRCr_61-12" edge="1">
          <mxGeometry relative="1" as="geometry" />
        </mxCell>
        <mxCell id="Hp_AaXpPT5wj6KRCr_61-27" style="edgeStyle=orthogonalEdgeStyle;rounded=0;orthogonalLoop=1;jettySize=auto;html=1;" parent="1" source="Hp_AaXpPT5wj6KRCr_61-3" target="Hp_AaXpPT5wj6KRCr_61-16" edge="1">
          <mxGeometry relative="1" as="geometry" />
        </mxCell>
        <mxCell id="Hp_AaXpPT5wj6KRCr_61-3" value="" style="rhombus;whiteSpace=wrap;html=1;" parent="1" vertex="1">
          <mxGeometry x="480" y="-900" width="40" height="25" as="geometry" />
        </mxCell>
        <mxCell id="Hp_AaXpPT5wj6KRCr_61-5" value="" style="ellipse;html=1;shape=startState;fillColor=#000000;strokeColor=#ff0000;" parent="1" vertex="1">
          <mxGeometry x="580" y="-920" width="30" height="30" as="geometry" />
        </mxCell>
        <mxCell id="Hp_AaXpPT5wj6KRCr_61-6" value="" style="edgeStyle=orthogonalEdgeStyle;html=1;verticalAlign=bottom;endArrow=open;endSize=8;strokeColor=#ff0000;rounded=0;entryX=0.943;entryY=0.652;entryDx=0;entryDy=0;entryPerimeter=0;" parent="1" source="Hp_AaXpPT5wj6KRCr_61-5" target="Hp_AaXpPT5wj6KRCr_61-3" edge="1">
          <mxGeometry relative="1" as="geometry">
            <mxPoint x="545" y="-850" as="targetPoint" />
          </mxGeometry>
        </mxCell>
        <mxCell id="Hp_AaXpPT5wj6KRCr_61-12" value="" style="ellipse;html=1;shape=endState;fillColor=#000000;strokeColor=#ff0000;" parent="1" vertex="1">
          <mxGeometry x="480" y="-740" width="30" height="30" as="geometry" />
        </mxCell>
        <mxCell id="Hp_AaXpPT5wj6KRCr_61-17" style="edgeStyle=orthogonalEdgeStyle;rounded=0;orthogonalLoop=1;jettySize=auto;html=1;entryX=1;entryY=0.75;entryDx=0;entryDy=0;" parent="1" source="Hp_AaXpPT5wj6KRCr_61-16" target="HNJoWr5GMsP5crq_2kIg-9" edge="1">
          <mxGeometry relative="1" as="geometry" />
        </mxCell>
        <mxCell id="Hp_AaXpPT5wj6KRCr_61-26" style="edgeStyle=orthogonalEdgeStyle;rounded=0;orthogonalLoop=1;jettySize=auto;html=1;" parent="1" source="Hp_AaXpPT5wj6KRCr_61-16" target="HNJoWr5GMsP5crq_2kIg-8" edge="1">
          <mxGeometry relative="1" as="geometry">
            <Array as="points">
              <mxPoint x="440" y="-1030" />
            </Array>
          </mxGeometry>
        </mxCell>
        <mxCell id="Hp_AaXpPT5wj6KRCr_61-16" value="" style="rhombus;whiteSpace=wrap;html=1;" parent="1" vertex="1">
          <mxGeometry x="420" y="-925" width="40" height="25" as="geometry" />
        </mxCell>
        <mxCell id="Hp_AaXpPT5wj6KRCr_61-23" value="" style="edgeStyle=segmentEdgeStyle;endArrow=classic;html=1;curved=0;rounded=0;endSize=8;startSize=8;entryX=1;entryY=0.424;entryDx=0;entryDy=0;entryPerimeter=0;exitX=0.5;exitY=1;exitDx=0;exitDy=0;" parent="1" source="Hp_AaXpPT5wj6KRCr_61-16" target="HNJoWr5GMsP5crq_2kIg-10" edge="1">
          <mxGeometry width="50" height="50" relative="1" as="geometry">
            <mxPoint x="380" y="-790" as="sourcePoint" />
            <mxPoint x="430" y="-840" as="targetPoint" />
            <Array as="points">
              <mxPoint x="440" y="-820" />
              <mxPoint x="350" y="-820" />
              <mxPoint x="350" y="-830" />
            </Array>
          </mxGeometry>
        </mxCell>
      </root>
    </mxGraphModel>
  </diagram>
</mxfile>
